<svg xmlns="http://www.w3.org/2000/svg" width="50" height="44.444" viewBox="0 0 50 44.444">
    <path data-name="Icon awesome-shopping-cart" d="M45.844 26.156 49.947 8.1a2.083 2.083 0 0 0-2.032-2.545H13.82l-.8-3.89A2.083 2.083 0 0 0 10.983 0h-8.9A2.083 2.083 0 0 0 0 2.083v1.389a2.083 2.083 0 0 0 2.083 2.084H8.15l6.1 29.812a4.862 4.862 0 1 0 5.82.743h18.2a4.86 4.86 0 1 0 5.521-.9l.479-2.107a2.083 2.083 0 0 0-2.032-2.545h-23.3l-.568-2.778h25.442a2.083 2.083 0 0 0 2.032-1.625z" style="fill:#1e8fff"/>
</svg>
