<svg xmlns="http://www.w3.org/2000/svg" width="59" height="59" viewBox="0 0 59 59">
    <defs>
        <linearGradient id="2us31k874b" x1=".5" x2=".5" y2="1" gradientUnits="objectBoundingBox">
            <stop offset="0" stop-color="#343434"/>
            <stop offset="1" stop-color="#07f" stop-opacity=".502"/>
        </linearGradient>
        <clipPath id="gdgiann73a">
            <rect data-name="사각형 385" width="59" height="59" rx="29.5" transform="translate(1805 1242)" style="fill:#72b9ff"/>
        </clipPath>
    </defs>
    <g data-name="그룹 839">
        <g data-name="그룹 824">
            <g data-name="그룹 38" transform="translate(-1805 -1242)" style="clip-path:url(#gdgiann73a)">
                <path data-name="사각형 387" transform="rotate(-40 2640.016 -1820.747)" style="fill:#72b9ff" d="M0 0h70v74H0z"/>
            </g>
            <path data-name="패스 125" d="m-20434.025-22560.387 4.049 3.135v5.98l29.854 17.619s4.973-3.449 6.934-5.8a31.979 31.979 0 0 0 5.252-9.062 26.866 26.866 0 0 0 1.717-8.734l-10.676-7.941-4.449 3.432-4.785-3.432s.809 4.945.514 5.143-9.121-4.572-9.611-4.67a22.492 22.492 0 0 0-4.844 1.389 18.929 18.929 0 0 0-2.09 2.389l-5.6-4.25-5.061 2.744z" transform="translate(20445 22588)" style="fill:url(#2us31k874b)"/>
            <text data-name="10X" transform="translate(10 37)" style="fill:#fff;font-size:20px;font-family:Pretendard-Bold,Pretendard;font-weight:700;letter-spacing:.06em"><tspan x="0" y="0">10X</tspan></text>
        </g>
    </g>
</svg>
