<svg xmlns="http://www.w3.org/2000/svg" width="83" height="40" viewBox="0 0 83 40">
    <defs>
        <linearGradient id="9x1z37iyxb" x1=".5" x2=".5" y2="1" gradientUnits="objectBoundingBox">
            <stop offset="0" stop-color="#343434"/>
            <stop offset="1" stop-color="#0090ff" stop-opacity=".502"/>
        </linearGradient>
        <clipPath id="g56t3ijbra">
            <rect data-name="사각형 554" width="83" height="40" rx="20" transform="translate(1721 1062)" style="opacity:.71;fill:#fff"/>
        </clipPath>
    </defs>
    <g data-name="그룹 847" transform="translate(-1104 -1062)">
        <rect data-name="사각형 549" width="83" height="40" rx="20" transform="translate(1104 1062)" style="opacity:.71;fill:#fff"/>
        <g data-name="마스크 그룹 660" transform="translate(-617)" style="clip-path:url(#g56t3ijbra)">
            <g data-name="그룹 820">
                <path data-name="패스 122" d="M-20435.344-22834.7s4.973 4.73 5.146 4.73-1.045 7.016-.756 6.957 27.557 19.15 27.674 19.15 7.133 5.146 10.158 2.436 14.863-.422 16.721-5.107 4.877-13.271 4.877-13.271l-25.148-16.637-8.174.207v6.266l-5.518-5.453h-7.418a25.387 25.387 0 0 0-2.437 2.67l-3.611-4.34z" transform="translate(22177 23912)" style="fill:url(#9x1z37iyxb)"/>
                <text transform="translate(1741 1089)" style="font-size:20px;font-family:Pretendard-Bold,Pretendard;font-weight:700;letter-spacing:.06em;fill:#fff"><tspan x="0" y="0">TOP</tspan></text>
            </g>
        </g>
    </g>
</svg>
