<svg xmlns="http://www.w3.org/2000/svg" width="83" height="40" viewBox="0 0 83 40">
    <defs>
        <linearGradient id="1yexv6ehcb" x1=".5" x2=".5" y2="1" gradientUnits="objectBoundingBox">
            <stop offset="0" stop-color="#343434"/>
            <stop offset="1" stop-color="#08f" stop-opacity=".502"/>
        </linearGradient>
        <clipPath id="esppj7puja">
            <rect data-name="사각형 558" width="83" height="40" rx="20" transform="translate(1717 1424)" style="opacity:.71;fill:#fff"/>
        </clipPath>
    </defs>
    <g data-name="그룹 851" transform="translate(-1104 -2261)">
        <rect data-name="사각형 553" width="83" height="40" rx="20" transform="translate(1104 2261)" style="opacity:.71;fill:#fff"/>
        <g data-name="마스크 그룹 664" transform="translate(-613 837)" style="clip-path:url(#esppj7puja)">
            <path data-name="패스 126" d="M-20426.187-22468.7c.074.453 25.262 19.447 25.262 19.447s6.98 2.49 8.488 0c.33-.545 6.43-.5 7.146-1.561 1.77-2.617 11.738-1.885 12.5-5.359.98-4.449 3.035-4.109 3.035-4.109l-31.686-21.346a42.559 42.559 0 0 1-3.162 3.3c-.227 0-6.025-3.3-6.025-3.3l.266 1.992.713 3.4-9.682-4.939-7.906 3.438 3.676 3.08-.113 1.045 5.25 3.547-5.74 1.365h-2.025z" transform="translate(22173 23919)" style="fill:url(#1yexv6ehcb)"/>
            <text data-name="3X" transform="translate(1744.5 1451.5)" style="font-size:20px;font-family:Pretendard-Bold,Pretendard;font-weight:700;letter-spacing:.06em;fill:#fff"><tspan x="0" y="0">3X</tspan></text>
        </g>
    </g>
</svg>
