<svg xmlns="http://www.w3.org/2000/svg" width="59" height="59" viewBox="0 0 59 59">
    <defs>
        <linearGradient id="1lp8oc48sb" x1=".5" x2=".5" y2="1" gradientUnits="objectBoundingBox">
            <stop offset="0" stop-color="#343434"/>
            <stop offset="1" stop-color="#0090ff" stop-opacity=".502"/>
        </linearGradient>
        <clipPath id="p0a8y5dcpa">
            <rect data-name="사각형 393" width="59" height="59" rx="29.5" transform="translate(1805 1242)" style="fill:#72b9ff"/>
        </clipPath>
    </defs>
    <g data-name="그룹 844">
        <g data-name="그룹 639" transform="translate(-1805 -1242)" style="clip-path:url(#p0a8y5dcpa)">
            <path data-name="사각형 392" transform="rotate(-40 2640.016 -1820.747)" style="fill:#72b9ff" d="M0 0h70v74H0z"/>
        </g>
        <path data-name="패스 122" d="M-20435.344-22834.7s4.973 4.73 5.146 4.73-1.045 7.016-.756 6.957 27.557 19.15 27.674 19.15a43.2 43.2 0 0 0 7.928-5.3 26.826 26.826 0 0 0 7.189-10.643 31.391 31.391 0 0 0 2.031-9.242l-10.541-7.395-8.174.207v6.266l-5.518-5.453h-7.418a25.387 25.387 0 0 0-2.437 2.67l-3.611-4.34z" transform="translate(20445 22860)" style="fill:url(#1lp8oc48sb)"/>
        <text transform="translate(9 37)" style="fill:#fff;font-size:20px;font-family:Pretendard-Bold,Pretendard;font-weight:700;letter-spacing:.06em"><tspan x="0" y="0">TOP</tspan></text>
    </g>
</svg>
